<?xml version="1.0" encoding="utf-8"?>
<svg xmlns="http://www.w3.org/2000/svg" viewBox="-40.0001 -40 79.9999 80.0001" width="160px" height="160px" preserveAspectRatio="none"><path d="M 38.79 14.146 L 37.649 14.146 C 29.908 31.187 17.046 40.364 -1.768 39.989 C -15.871 39.706 -30.858 31.046 -37.481 14.075 L -39.172 14.075 C -38.949 13.378 -38.26 13.373 -37.862 12.939 C -40.856 3.777 -40.747 -5.392 -37.273 -14.428 C -34.292 -22.184 -29.329 -28.442 -22.442 -33.12 C -8.659 -42.48 9.697 -42.242 23.137 -32.697 C 36.064 -23.516 44.061 -5.753 37.86 13.138 C 38.033 13.588 38.765 13.507 38.79 14.146 M 36.981 12.839 C 41.942 -0.472 39.001 -18.904 24.693 -30.488 C 10.563 -41.926 -9.586 -42.14 -23.779 -31.198 C -38.637 -19.742 -42.006 -0.985 -37.043 12.557 C -36.005 12.307 -34.971 11.878 -33.922 11.838 C -30.668 11.717 -28.395 10.094 -26.695 7.459 C -26.579 7.277 -26.437 7.109 -26.298 6.942 C -24.318 4.576 -22.805 1.813 -20.46 -0.233 C -18.828 -1.658 -17.573 -3.343 -16.454 -5.161 C -15.427 -6.832 -14.332 -8.451 -13.014 -9.908 C -12.715 -10.241 -12.577 -10.616 -12.48 -11.063 C -11.847 -13.994 -10.227 -15.483 -7.265 -15.893 C -6.275 -16.03 -5.276 -16.098 -4.284 -16.227 C -3.584 -16.318 -3.034 -16.669 -2.886 -17.398 C -2.762 -18.015 -2.839 -18.922 -2.839 -18.922 C -2.959 -18.944 -3.813 -19.018 -3.822 -19.16 C -3.97 -21.713 -4.477 -24.437 -3.627 -26.94 C -3.018 -28.73 -1.47 -28.781 0.136 -28.732 C 2.085 -28.671 3.081 -27.883 3.437 -25.966 C 3.841 -23.79 3.539 -21.429 3.378 -19.262 C 3.363 -19.067 2.526 -18.968 2.408 -18.945 C 2.408 -18.945 2.259 -17.976 2.451 -17.307 C 2.667 -16.552 3.26 -16.244 4.035 -16.181 C 5.073 -16.094 6.108 -15.949 7.144 -15.822 C 9.893 -15.488 11.314 -13.706 11.981 -11.215 C 12.148 -10.593 12.408 -10.114 12.784 -9.627 C 13.69 -8.461 14.626 -7.306 15.412 -6.059 C 16.854 -3.773 18.341 -1.554 20.434 0.217 C 21.461 1.085 22.267 2.187 23.056 3.287 C 24.647 5.521 26.347 7.674 28.15 9.739 C 28.916 10.61 29.747 11.235 30.985 11.389 C 32.999 11.641 35.012 11.995 36.981 12.839 M 3.179 39.137 C 20.732 37.839 33.134 24.852 36.469 14.002 C 35.483 13.886 34.475 13.849 33.508 13.633 C 31.876 13.266 29.962 13.46 28.682 12.329 C 23.311 7.588 17.8 2.987 13.395 -2.758 C 11.882 -4.731 10.417 -6.74 9.002 -8.785 C 8.304 -8.217 7.712 -7.528 7.256 -6.752 C 5.45 -3.724 5.057 -0.388 5.649 2.959 C 6.433 7.379 6.118 11.647 5.13 15.994 C 3.404 23.579 2.985 31.303 3.179 39.137 M -9.251 -8.681 C -9.377 -8.664 -9.495 -8.683 -9.534 -8.637 C -9.737 -8.411 -9.925 -8.171 -10.098 -7.921 C -13.572 -2.855 -17.41 1.898 -22.035 5.975 C -23.503 7.269 -25.045 8.499 -26.375 9.927 C -28.355 12.052 -30.677 13.337 -33.576 13.59 C -34.562 13.674 -35.541 13.85 -36.523 13.985 C -31.978 27.307 -18.29 38.116 -3.649 39.019 C -3.446 30.773 -4.012 22.605 -5.854 14.543 C -6.585 11.352 -7.06 8.151 -6.316 4.865 C -5.892 2.995 -5.822 1.062 -5.954 -0.858 C -6.162 -3.846 -7.051 -6.552 -9.251 -8.681" style="" id="object-0"/></svg>